<svg width="54" height="40" viewBox="0 0 54 40" xmlns="http://www.w3.org/2000/svg">
<path d="M54 22H0V18H54V22Z"/>
<path d="M41.8105 14.2831C45.44 16.9901 50.0983 18 53.9984 18V22C49.5191 22 43.936 20.8584 39.4191 17.4896C34.8076 14.0502 31.5156 8.43872 31.5156 0H35.5156C35.5156 7.25818 38.2754 11.6467 41.8105 14.2831Z"/>
<path d="M41.8105 25.7169C45.44 23.0099 50.0983 22 53.9984 22V18C49.5191 18 43.936 19.1416 39.4191 22.5104C34.8076 25.9498 31.5156 31.5613 31.5156 40H35.5156C35.5156 32.7418 38.2754 28.3533 41.8105 25.7169Z"/>
</svg>
