<svg width="20" height="16" viewBox="0 0 20 16" xmlns="http://www.w3.org/2000/svg">
<path d="M20 7L0 7L0 9L20 9V7Z"/>
<path d="M14.7425 10.4911C16.4738 9.39835 18.5912 9 19.999 9V7C18.3032 7 15.7942 7.46227 13.675 8.79981C11.5065 10.1685 9.74609 12.4652 9.74609 16H11.7461C11.7461 13.256 13.0604 11.5528 14.7425 10.4911Z"/>
<path d="M14.7425 5.50888C16.4738 6.60165 18.5912 7 19.999 7V9C18.3032 9 15.7942 8.53773 13.675 7.20019C11.5065 5.83153 9.74609 3.53477 9.74609 0L11.7461 0C11.7461 2.74399 13.0604 4.44723 14.7425 5.50888Z"/>
</svg>
