<svg width="12" height="12" viewBox="0 0 12 12" xmlns="http://www.w3.org/2000/svg">
  <path d="M12 5L0 5L0 7L12 7V5Z"/>
  <path d="M9.07616 7.864C10.035 7.2336 11.2212 7 12.0009 7V5C10.9186 5 9.32894 5.30429 7.97745 6.19283C6.57587 7.1143 5.44922 8.66155 5.44922 11H7.44922C7.44922 9.41422 8.16739 8.46148 9.07616 7.864Z"/>
  <path d="M9.07616 4.136C10.035 4.7664 11.2212 5 12.0009 5V7C10.9186 7 9.32894 6.69571 7.97745 5.80717C6.57587 4.8857 5.44922 3.33845 5.44922 1L7.44922 1C7.44922 2.58578 8.16739 3.53852 9.07616 4.136Z"/>
</svg>
