<svg width="24" height="24" viewBox="0 0 24 24" xmlns="http://www.w3.org/2000/svg">
<path d="M6.26318 3.03528C5.01619 3.03528 4.00091 4.05036 4 5.29833C4 6.5463 5.01528 7.56157 6.26318 7.56157C7.51063 7.56157 8.52538 6.5463 8.52538 5.29833C8.52538 4.05049 7.51056 3.03528 6.26318 3.03528ZM7.96347 8.47058H4.56613C4.40452 8.47058 4.27344 8.6016 4.27344 8.76333V19.6984C4.27344 19.86 4.40452 19.9911 4.56613 19.9911H7.96341C8.12508 19.9911 8.25616 19.86 8.25616 19.6984V8.76333C8.25623 8.60153 8.12514 8.47058 7.96347 8.47058ZM13.6444 9.33827C14.3111 8.72094 15.4037 8.34236 16.647 8.34236C20.4875 8.34236 20.98 11.2059 20.9801 13.7005V19.6989C20.9801 19.8605 20.849 19.9916 20.6874 19.9916H17.2917C17.13 19.9916 16.9989 19.8606 16.9989 19.6989V14.3815C16.9989 12.8078 16.8939 11.7761 15.49 11.7744C14.0651 11.7744 13.7796 12.7365 13.7796 14.2888V19.6989C13.7796 19.8605 13.6485 19.9916 13.4869 19.9916H10.0928C9.93111 19.9916 9.80002 19.8606 9.80002 19.6989V8.76385C9.80002 8.60211 9.93111 8.47109 10.0928 8.47109H13.3517C13.5133 8.47109 13.6444 8.60211 13.6444 8.76385V9.33827Z"/>
</svg>
