<svg width="16" height="16" viewBox="0 0 16 16" xmlns="http://www.w3.org/2000/svg">
<path d="M1.58331 2.3335C2.1356 2.3335 2.58331 2.78121 2.58331 3.3335V5.8335H5.08331C5.6356 5.8335 6.08331 6.28121 6.08331 6.8335C6.08331 7.38578 5.6356 7.8335 5.08331 7.8335H1.58331C1.03103 7.8335 0.583313 7.38578 0.583313 6.8335V3.3335C0.583313 2.78121 1.03103 2.3335 1.58331 2.3335Z"/>
<path d="M9.91669 9.1665C9.91669 8.61422 10.3644 8.1665 10.9167 8.1665H14.4167C14.969 8.1665 15.4167 8.61422 15.4167 9.1665V12.6665C15.4167 13.2188 14.969 13.6665 14.4167 13.6665C13.8644 13.6665 13.4167 13.2188 13.4167 12.6665V10.1665H10.9167C10.3644 10.1665 9.91669 9.71879 9.91669 9.1665Z"/>
<path d="M6.26659 1.99758C7.28079 1.70423 8.35276 1.67257 9.3825 1.90556C10.4122 2.13855 11.3662 2.6286 12.1553 3.32997C12.9444 4.03135 13.543 4.9212 13.8952 5.91649C14.0794 6.43714 13.8067 7.00856 13.2861 7.1928C12.7654 7.37704 12.194 7.10433 12.0098 6.58368C11.7703 5.90689 11.3632 5.30179 10.8266 4.82485C10.29 4.34791 9.64135 4.01468 8.94113 3.85625C8.24091 3.69781 7.51197 3.71934 6.82232 3.91882C6.13266 4.11831 5.50479 4.48924 4.99727 4.99701C4.98988 5.00441 4.98238 5.01168 4.97476 5.01884L2.26809 7.56217C1.86561 7.94036 1.23275 7.92067 0.854563 7.51819C0.476371 7.11572 0.49606 6.48286 0.898539 6.10467L3.59428 3.5716C4.33859 2.8308 5.25764 2.28942 6.26659 1.99758ZM15.1454 8.48198C15.5236 8.88445 15.5039 9.51731 15.1014 9.8955L12.4057 12.4286C11.6614 13.1694 10.7423 13.7107 9.73337 14.0026C8.71918 14.2959 7.6472 14.3276 6.61747 14.0946C5.58773 13.8616 4.63379 13.3716 3.84467 12.6702C3.05555 11.9688 2.45697 11.079 2.10477 10.0837C1.92053 9.56303 2.19324 8.99161 2.71389 8.80737C3.23453 8.62313 3.80596 8.89584 3.9902 9.41649C4.22969 10.0933 4.63673 10.6984 5.17334 11.1753C5.70994 11.6523 6.35861 11.9855 7.05883 12.1439C7.75905 12.3024 8.488 12.2808 9.17765 12.0813C9.8673 11.8819 10.4952 11.5109 11.0027 11.0032C11.0101 10.9958 11.0176 10.9885 11.0252 10.9813L13.7319 8.438C14.1344 8.05981 14.7672 8.0795 15.1454 8.48198Z"/>
</svg>
