<svg width="20" height="20" viewBox="0 0 20 20" xmlns="http://www.w3.org/2000/svg">
<path d="M8.33268 3.33329C5.57126 3.33329 3.33268 5.57187 3.33268 8.33329C3.33268 11.0947 5.57126 13.3333 8.33268 13.3333C11.0941 13.3333 13.3327 11.0947 13.3327 8.33329C13.3327 5.57187 11.0941 3.33329 8.33268 3.33329ZM1.66602 8.33329C1.66602 4.65139 4.65078 1.66663 8.33268 1.66663C12.0146 1.66663 14.9993 4.65139 14.9993 8.33329C14.9993 9.87389 14.4768 11.2924 13.5992 12.4213L18.0886 16.9107C18.414 17.2361 18.414 17.7638 18.0886 18.0892C17.7632 18.4147 17.2355 18.4147 16.9101 18.0892L12.4207 13.5998C11.2918 14.4774 9.87328 15 8.33268 15C4.65078 15 1.66602 12.0152 1.66602 8.33329Z"/>
</svg>
