<svg width="24" height="24" viewBox="0 0 24 24" xmlns="http://www.w3.org/2000/svg">
  <path d="M15.6055 19.5495C14.9736 19.5481 14.3679 19.2965 13.9211 18.8496C13.4742 18.4028 13.2226 17.7971 13.2212 17.1652C13.2208 16.9112 13.2631 16.659 13.3464 16.4191L8.38467 13.5652C8.11003 13.8469 7.76994 14.0563 7.39473 14.1747C7.01951 14.2931 6.62083 14.3167 6.23423 14.2436C5.84764 14.1705 5.48514 14.0029 5.17907 13.7556C4.873 13.5084 4.63287 13.1893 4.48008 12.8267C4.3273 12.4641 4.26661 12.0694 4.30343 11.6777C4.34026 11.2859 4.47344 10.9094 4.69112 10.5817C4.90879 10.2539 5.20419 9.98514 5.55097 9.79928C5.89775 9.61341 6.28514 9.51626 6.67859 9.51646C6.99604 9.51525 7.31045 9.57843 7.60279 9.70219C7.89514 9.82594 8.15935 10.0077 8.37945 10.2365L13.3464 7.3669C13.2635 7.12869 13.2212 6.87825 13.2212 6.62603C13.2113 6.06232 13.3997 5.51305 13.7536 5.07415C14.1075 4.63524 14.6043 4.3346 15.1573 4.22472C15.7103 4.11483 16.2843 4.2027 16.7791 4.47298C17.2738 4.74325 17.658 5.17875 17.8643 5.70341C18.0707 6.22808 18.0862 6.80857 17.9081 7.3435C17.7301 7.87843 17.3697 8.33381 16.8901 8.6301C16.4104 8.9264 15.8419 9.04477 15.2838 8.96456C14.7258 8.88435 14.2136 8.61064 13.8368 8.19125L8.90641 11.0347C9.01044 11.3062 9.0635 11.5945 9.06293 11.8852C9.06395 12.1742 9.01086 12.4609 8.90641 12.7304L13.8368 15.5791C14.1015 15.2831 14.4361 15.0581 14.81 14.9246C15.1839 14.7911 15.5853 14.7533 15.9776 14.8146C16.3699 14.8759 16.7406 15.0344 17.0559 15.2757C17.3713 15.517 17.6212 15.8334 17.7829 16.196C17.9447 16.5586 18.0131 16.9559 17.9819 17.3518C17.9508 17.7476 17.8211 18.1293 17.6046 18.4622C17.3882 18.795 17.0919 19.0684 16.7427 19.2574C16.3935 19.4464 16.0026 19.5451 15.6055 19.5443V19.5495ZM14.3847 16.4712C14.2606 16.6816 14.194 16.9209 14.1916 17.1652C14.1916 17.4448 14.2746 17.7182 14.4299 17.9507C14.5853 18.1832 14.8061 18.3644 15.0645 18.4714C15.3228 18.5785 15.6071 18.6065 15.8814 18.5519C16.1557 18.4973 16.4076 18.3627 16.6053 18.1649C16.8031 17.9672 16.9377 17.7153 16.9923 17.441C17.0468 17.1667 17.0188 16.8824 16.9118 16.6241C16.8048 16.3657 16.6236 16.1449 16.3911 15.9895C16.1586 15.8342 15.8852 15.7512 15.6055 15.7512C15.3582 15.7509 15.1152 15.8165 14.9015 15.9412C14.6879 16.0659 14.5113 16.2453 14.3899 16.4608L14.3847 16.4712ZM6.67859 10.4765C6.43382 10.4761 6.19316 10.5394 5.98016 10.6599C5.76715 10.7805 5.5891 10.9543 5.46342 11.1644C5.33773 11.3744 5.26873 11.6135 5.26315 11.8582C5.25757 12.1029 5.31561 12.3448 5.43159 12.5604C5.54758 12.7759 5.71753 12.9576 5.92482 13.0878C6.1321 13.218 6.36963 13.2921 6.61416 13.3029C6.85868 13.3137 7.10183 13.2609 7.31981 13.1496C7.53779 13.0382 7.72314 12.8722 7.85772 12.6678C8.00722 12.438 8.08695 12.1698 8.08728 11.8956C8.08848 11.6212 8.00861 11.3526 7.85772 11.1234C7.73035 10.9262 7.55586 10.7637 7.35 10.6508C7.14414 10.5378 6.91339 10.4779 6.67859 10.4765ZM14.3847 7.30429C14.5049 7.52119 14.6812 7.70189 14.8949 7.8276C15.1087 7.9533 15.3523 8.01942 15.6003 8.01907C15.9187 8.02539 16.2302 7.92598 16.4861 7.7364C16.742 7.54682 16.9278 7.27777 17.0145 6.97134C17.1012 6.6649 17.0839 6.33837 16.9652 6.04284C16.8466 5.74731 16.6333 5.49945 16.3588 5.33803C16.0842 5.17662 15.764 5.11076 15.448 5.15076C15.1321 5.19076 14.8383 5.33436 14.6127 5.5591C14.387 5.78384 14.2423 6.07703 14.201 6.39281C14.1598 6.70858 14.2244 7.02913 14.3847 7.30429Z"/>
</svg>
