<svg width="24" height="24" viewBox="0 0 24 24" xmlns="http://www.w3.org/2000/svg">
<path d="M8.66064 19.2872C15.4531 19.2872 19.1683 13.6597 19.1683 8.77951C19.1683 8.61967 19.1683 8.46055 19.1575 8.30215C19.8803 7.77937 20.5042 7.13206 21 6.39055C20.326 6.68935 19.611 6.88522 18.8789 6.97159C19.6499 6.51011 20.2269 5.78418 20.5025 4.92895C19.7776 5.35916 18.9845 5.66232 18.1574 5.82535C17.6006 5.23328 16.8642 4.84123 16.0621 4.70986C15.2601 4.5785 14.4371 4.71514 13.7205 5.09864C13.0039 5.48214 12.4337 6.09113 12.0981 6.83136C11.7624 7.57159 11.6802 8.4018 11.8639 9.19351C10.3957 9.11986 8.95932 8.73829 7.64809 8.07355C6.33686 7.40882 5.18007 6.4758 4.2528 5.33503C3.78055 6.14803 3.6359 7.11045 3.84832 8.02635C4.06075 8.94224 4.61426 9.74275 5.39616 10.2649C4.80842 10.2477 4.23349 10.0891 3.72 9.80263V9.84943C3.72023 10.7021 4.01539 11.5284 4.5554 12.1882C5.09542 12.848 5.84705 13.3008 6.6828 13.4696C6.13911 13.6179 5.56866 13.6396 5.01528 13.533C5.25136 14.2667 5.71082 14.9083 6.32943 15.3682C6.94804 15.828 7.69487 16.083 8.46552 16.0976C7.69983 16.6994 6.82299 17.1444 5.88516 17.4071C4.94733 17.6697 3.96691 17.7449 3 17.6283C4.68887 18.7121 6.65394 19.2869 8.66064 19.2843"/>
</svg>
