<svg width="1136" height="1198" viewBox="0 0 1136 1198" fill="none" xmlns="http://www.w3.org/2000/svg">
<g opacity="0.05" clip-path="url(#clip0)">
<path d="M789.84 855.22L995.114 1198.54H929.773L733.697 870.621V862.893C655.299 874.314 589.808 859.063 556.125 848.242L468.694 1001.39L545.354 1198.54H485.132L406.707 996.84L531.777 777.698L555.167 788.355C555.989 788.723 646.02 828.221 755.144 801.862L789.84 793.48V855.22Z" fill="black"/>
<path d="M285.415 691.842C277.983 715.829 275.793 739.857 279.571 758.625C285.648 788.909 296.378 818.443 296.474 818.743C322.616 891.849 290.329 940.914 268.676 963.743L346.075 1198.53H287.03L203.308 944.73L219.801 932.75C227.452 927.176 264.639 896.388 243.63 837.674C243.192 836.488 231.421 803.996 224.509 769.61C217.378 734.024 224.687 698.234 232.064 674.438L235.719 663.888C173.143 673.211 118.04 715.407 94.7451 776.765C78.581 819.342 79.3475 865.913 96.8939 907.918L98.1668 911.244C114.7 949.705 110.895 975.559 104.819 990.592C91.9803 1022.42 61.4863 1041.89 29.6235 1041.89C19.947 1041.89 10.1609 1040.09 0.676025 1036.3L21.6031 984.432C33.579 989.189 47.5258 982.619 52.7267 969.74C53.808 967.041 56.6001 956.479 46.7319 933.691L44.8569 928.893C21.9726 873.804 21.0282 812.773 42.2153 756.975C77.9514 662.839 170.693 602.98 269.566 606.237C322.931 554.528 409.198 556.232 418.683 556.573L501.433 557.091C519.034 523.631 551.486 393.159 573.508 281.373C587.345 203.742 648.525 153.559 733.93 149.471L791.62 92.3237L866.035 157.444L830.504 200.444L792.81 170.282L757.362 205.759L742.512 205.132C679.813 206.086 638.342 237.624 628.72 291.636L551.321 613.12L416.685 612.452C416.671 612.466 308.56 609.822 285.415 691.842Z" fill="black"/>
<path d="M974.031 243.937C1005.89 245.341 1033.17 267.406 1040.92 298.385C1045.59 317.016 1042.67 336.342 1032.73 352.82C1022.78 369.284 1006.99 380.91 988.266 385.544C969.72 390.15 950.312 387.234 934.189 377.843L860.951 384.603L903.818 567.247C932.109 597.436 948.355 638.105 948.82 680.383H1136.48L1070.15 906.163C1051.22 964.182 1006 990.936 983.503 1000.99L954.459 952.42C957.621 951.411 1001.16 936.665 1016.5 889.658L1061.53 736.289H886.586L890.72 704.724C892.102 694.162 892.677 688.71 892.677 682.277C892.677 651.952 880.003 621.736 858.789 601.402L852.807 595.664L791.6 334.857L951.202 320.11L960.262 327.947C964.204 331.341 969.487 332.554 974.716 331.286C978.876 330.25 982.394 327.674 984.597 323.995C986.801 320.342 987.444 316.035 986.418 311.878C984.652 304.805 978.302 299.83 970.979 299.776L969.939 299.748C969.063 299.694 968.338 299.776 968.077 299.803L957.593 300.798L866.686 228.85L1055.8 -0.269653L1069.1 10.62L947.794 218.723L974.031 243.937Z" fill="black"/>
</g>
<defs>
<clipPath id="clip0">
<rect width="1136" height="1198" fill="white"/>
</clipPath>
</defs>
</svg>
