<svg width="91" height="13" viewBox="0 0 91 13" xmlns="http://www.w3.org/2000/svg">
  <path d="M6.05414 0.714411L-0.00390625 0.714411L-0.00390625 12.8707L6.05414 12.8707C9.3997 12.8707 12.1122 10.1497 12.1122 6.79289C12.1122 3.43543 9.40031 0.714411 6.05414 0.714411ZM6.05414 10.1694L2.68835 10.1694L2.68835 3.41575L6.05414 3.41575C7.90924 3.41575 9.41931 4.9303 9.41931 6.79289C9.41931 8.65425 7.90924 10.1694 6.05414 10.1694ZM16.1509 0.714411L18.8431 0.714411L18.8431 12.8714L16.1509 12.8714L16.1509 0.714411ZM41.0554 0.601265L43.7476 0.601265V12.7582H41.0554V0.601265ZM59.9018 0.60188V3.30322L55.1902 3.30322V12.7588H52.4979V3.3026L47.7863 3.3026V0.60188L59.9018 0.60188ZM22.8849 6.4719C22.9946 3.1704 25.8051 0.60188 29.098 0.60188L34.9967 0.60188V3.28846C34.9967 3.29646 34.9906 3.3026 34.9826 3.3026L28.9393 3.3026C27.0119 3.3026 25.457 4.93767 25.5808 6.89742C25.6948 8.69852 27.2729 10.0563 29.071 10.0563H32.291C32.2989 10.0563 32.3051 10.0495 32.3051 10.0415V6.0187C32.3051 6.01071 32.3118 6.00456 32.3198 6.00456H34.9832C34.9912 6.00456 34.9973 6.01071 34.9973 6.0187V12.7441C34.9973 12.7515 34.9912 12.7582 34.9832 12.7582H28.9399C25.5251 12.7582 22.7703 9.92344 22.8849 6.4719ZM81.3014 9.11113C81.3014 9.73035 82.6129 10.3705 84.8063 10.3705C87.0003 10.3705 88.3118 9.73035 88.3118 9.11113C88.3118 7.10219 78.6189 8.74218 78.6189 4.24897C78.6189 2.09552 81.2787 0.472132 84.8063 0.472132C88.3339 0.472132 90.9936 2.09552 90.9936 4.24897H88.3118C88.3118 3.62974 87.0003 2.98961 84.8063 2.98961C82.619 2.98961 81.4742 3.62298 81.4742 4.24897C81.4742 6.05929 90.9936 4.56811 90.9936 9.11113C90.9936 11.2646 88.3339 12.8886 84.8063 12.8886C81.2787 12.8886 78.6189 11.2646 78.6189 9.11113H81.3014ZM60.8677 12.7582H63.9846L64.9664 11.0696L71.8353 11.0696L72.8532 12.7582H76.0008L68.2948 -0.0161133L60.8677 12.7582ZM70.4085 8.7059H66.3404L68.3371 5.27158L70.4085 8.7059Z"/>
</svg>
