<svg width="54" height="70" viewBox="0 0 54 70" fill="none" xmlns="http://www.w3.org/2000/svg">
<path d="M54 26.9231C54 51.1538 27 70 27 70C27 70 0 51.1538 0 26.9231C0 19.7826 2.84463 12.9346 7.90812 7.88559C12.9716 2.83653 19.8392 0 27 0C34.1608 0 41.0284 2.83653 46.0919 7.88559C51.1554 12.9346 54 19.7826 54 26.9231Z" fill="black"/>
<path d="M30.0691 32.8818L34.769 40.7497H33.2729L28.7836 33.2348V33.0577C26.9886 33.3194 25.4891 32.9699 24.7179 32.7219L22.7161 36.2317L24.4713 40.7497H23.0925L21.2969 36.1273L24.1605 31.1052L24.696 31.3495C24.7148 31.3579 26.7762 32.2631 29.2747 31.659L30.0691 31.4669V32.8818Z" fill="white"/>
<path d="M18.5194 29.1377C18.3492 29.6874 18.2991 30.238 18.3856 30.6681C18.5247 31.3622 18.7704 32.039 18.7726 32.0459C19.3711 33.7213 18.6319 34.8457 18.1361 35.3689L19.9082 40.7496H18.5563L16.6395 34.9331L17.0171 34.6586C17.1922 34.5309 18.0437 33.8253 17.5626 32.4797C17.5526 32.4525 17.2831 31.7079 17.1249 30.9199C16.9616 30.1044 17.1289 29.2842 17.2978 28.7388L17.3815 28.4971C15.9488 28.7107 14.6872 29.6777 14.1538 31.0839C13.7837 32.0596 13.8013 33.1269 14.203 34.0895L14.2321 34.1657C14.6107 35.0472 14.5236 35.6397 14.3844 35.9842C14.0905 36.7135 13.3923 37.1598 12.6628 37.1598C12.4412 37.1598 12.2172 37.1186 12 37.0318L12.4791 35.843C12.7533 35.952 13.0727 35.8015 13.1917 35.5063C13.2165 35.4445 13.2804 35.2024 13.0545 34.6802L13.0116 34.5702C12.4876 33.3077 12.466 31.9091 12.9511 30.6303C13.7693 28.473 15.8927 27.1012 18.1565 27.1759C19.3783 25.9908 21.3535 26.0299 21.5706 26.0377L23.4653 26.0496C23.8683 25.2828 24.6113 22.2927 25.1155 19.7309C25.4323 17.9518 26.8331 16.8018 28.7885 16.7081L30.1094 15.3984L31.8132 16.8908L30.9997 17.8762L30.1366 17.185L29.325 17.998L28.985 17.9837C27.5494 18.0055 26.5999 18.7283 26.3796 19.9661L24.6075 27.3336L21.5249 27.3183C21.5246 27.3186 19.0493 27.258 18.5194 29.1377Z" fill="white"/>
<path d="M34.2863 18.8729C35.0158 18.9051 35.6404 19.4107 35.8177 20.1207C35.9246 20.5477 35.8579 20.9906 35.6303 21.3682C35.4025 21.7455 35.0409 22.0119 34.6122 22.1181C34.1876 22.2237 33.7432 22.1568 33.3741 21.9416L31.6972 22.0966L32.6787 26.2822C33.3264 26.9741 33.6984 27.9061 33.7091 28.875H38.0057L36.4871 34.0492C36.0537 35.3788 35.0183 35.992 34.5032 36.2225L33.8382 35.1093C33.9106 35.0862 34.9074 34.7482 35.2587 33.671L36.2897 30.1562H32.2842L32.3788 29.4328C32.4105 29.1907 32.4236 29.0658 32.4236 28.9184C32.4236 28.2234 32.1334 27.531 31.6477 27.065L31.5108 26.9335L30.1094 20.9565L33.7636 20.6186L33.971 20.7982C34.0613 20.8759 34.1823 20.9037 34.302 20.8747C34.3972 20.8509 34.4778 20.7919 34.5282 20.7076C34.5787 20.6239 34.5934 20.5252 34.5699 20.4299C34.5295 20.2678 34.3841 20.1538 34.2164 20.1525L34.1926 20.1519C34.1725 20.1507 34.1559 20.1525 34.15 20.1532L33.9099 20.176L31.8285 18.5271L36.1584 13.2764L36.463 13.5259L33.6856 18.2951L34.2863 18.8729Z" fill="white"/>
</svg>
